<?xml version="1.0" standalone="no"?><!DOCTYPE svg PUBLIC "-//W3C//DTD SVG 1.1//EN" "http://www.w3.org/Graphics/SVG/1.1/DTD/svg11.dtd"><svg t="1525066274295" class="icon" style="" viewBox="0 0 1024 1024" version="1.1" xmlns="http://www.w3.org/2000/svg" p-id="8379" data-spm-anchor-id="a313x.7781069.0.i13" xmlns:xlink="http://www.w3.org/1999/xlink" width="200" height="200"><defs><style type="text/css"></style></defs><path d="M490.65205043 967.51840816c-262.92876115 0-476.82734669-204.36763392-476.82734669-455.51060596 0-251.19312909 213.89858555-455.52955417 476.82734669-455.52955418 251.81284714 0 460.89635714 187.90720895 475.96130187 427.75035788 0.90505586 14.66926143-10.79267976 27.24307332-26.07274246 28.12472256-15.35585554 0.67433349-28.53601027-10.27439038-29.47561876-24.923589-13.28938562-211.87781425-197.96536678-377.81735558-420.41071143-377.8173556-232.2560611 0-421.20653643 180.50291569-421.20653644 402.39653294 0 221.87466903 188.94936073 402.37535552 421.20653644 402.37535553 33.82144738 0 67.46010021-3.87323786 100.01759025-11.41574164 14.73725209-3.45526255 30.01842936 5.19181064 33.64088203 19.51220202 3.62022347 14.25240073-5.5417953 28.64078276-20.42283088 32.10050371-36.86653682 8.58354094-74.99703097 12.93717175-113.2356414 12.93717174zM534.21399441 380.38459102l-9.12300774 10.65446926c60.14608962 59.36141064 135.50202207 100.0744349 226.06556814 122.02426891-10.46721633 13.57695263-19.58910948 26.46396734-27.37794003 38.76135822-38.16281758-12.60836451-73.83338772-28.26181847-106.96712638-47.00940431v25.68486136h-236.71000599v-28.08905534c-34.14802542 19.70056955-71.15611654 38.26090245-111.05994061 55.67654031-8.40074641-12.92156734-16.91072369-24.04193975-25.34825192-33.39789907 97.04606446-36.47865574 177.25273969-84.6305259 240.80504942-144.30179555h49.7178843zM343.56375282 265.10588628h43.5964966c-8.43864283 16.1204717-17.01995457 31.49527546-25.8553953 46.0252118h147.05374499v32.44602994h-167.83882113c-21.97992824 31.58444353-45.26505402 58.72274435-69.96126447 81.36251629-7.42324148-9.39162652-16.00566782-18.92257817-25.8531661-28.59174031 39.57724602-35.52567202 72.49475214-79.26818133 98.85617621-131.24313231M265.99868155 686.42276819h298.59598748c29.07770627-46.47439591 53.26565873-90.89235332 72.49698133-133.14575591l38.52729206 19.38736671c-23.31856382 39.01994562-46.63935684 76.96764524-69.92671184 113.7583892h125.69019101v34.38320619h-465.38262544v-34.38320619zM316.72973801 577.47499615l32.44491535-15.980032c20.24226555 31.61453775 38.71008658 64.23667464 55.22178318 97.82739964l-34.47348885 18.38645518c-15.89532234-34.85468234-33.60298562-68.27041502-53.19209509-100.23382282M394.76517083 426.39308379c-14.19444148-17.78234153-28.53489567-34.74879525-43.09158241-50.86926697l26.36142405-18.88691094c15.20761364 13.85448824 30.77970173 29.54249481 46.63935685 46.97596628l-29.90919849 22.78021163zM499.70706752 416.18891324c-32.44602997 29.07547707-69.78069913 56.17811068-112.03967473 81.36028709h216.50452227c-38.56184468-22.91619292-73.36079698-50.05560835-104.46596214-81.36028709M461.17754627 554.72822255l34.97840304-9.21886341c13.18238393 35.18014577 24.66165781 70.84737211 34.47460344 107.02954404l-37.5152345 10.65558387c-9.41614775-40.05652438-20.09848204-76.20860208-31.93888658-108.4662645M564.59466903 265.10588628h42.07618107c-7.38311585 16.1204717-15.17194641 31.49527546-23.31856382 46.0252118h162.2279206v32.44602994h-181.96081356c-9.12412234 13.56246281-17.5973178 25.32150149-25.38503375 35.35402352-12.49356063-6.81578402-24.65831401-12.62731273-36.46416593-17.43458606 25.02167388-26.80837899 45.9159809-58.94454992 62.82447539-96.39179379M646.72068688 433.15425238c-14.84536835-16.15390973-33.74676912-34.07334716-56.7409841-53.77391671l24.29829795-22.24297403c22.63308431 18.0219807 42.43954094 35.17903118 59.35026462 51.33405551l-26.90646387 24.68283523zM678.40878828 893.90682601v0c-15.89643694-15.15188358-15.89643694-40.05652438 0-55.27751322l261.9122452-250.22565557c15.97000059-15.22098884 42.00707582-15.22098884 57.90462736 0 15.93098957 15.18755081 15.93098957 40.05875358 0 55.27974243l-261.95460004 250.22342636c-15.89309314 15.22321804-41.96806479 15.22321804-57.86227252 0z" fill="#1296db" p-id="8380" data-spm-anchor-id="a313x.7781069.0.i12" class=""></path></svg>