<?xml version="1.0" standalone="no"?><!DOCTYPE svg PUBLIC "-//W3C//DTD SVG 1.1//EN" "http://www.w3.org/Graphics/SVG/1.1/DTD/svg11.dtd"><svg class="icon" width="200px" height="200.00px" viewBox="0 0 1024 1024" version="1.1" xmlns="http://www.w3.org/2000/svg"><path fill="#333333" d="M929.792 341.76c-4.672-5.312-15.424-17.92-29.632-34.496-42.752-49.984-114.24-133.568-147.2-169.088-13.632-14.656-30.528-32.96-63.296-34.24-2.368-0.064-9.664-0.32-101.568-0.32-104.512 0-252.096 0.32-251.968 0.32-15.616 0-39.424 3.52-65.728 34.304C251.2 160.768 221.248 195.328 190.976 230.272 152.448 274.816 113.344 320 94.912 341.888c-32 37.056-32.768 88.64-2.112 134.784l2.048 2.688c36.224 42.176 115.008 132.736 208 239.744l144.64 166.336c26.688 30.784 47.808 34.944 64.896 34.944 17.984 0 38.272-4.224 64.896-34.88l149.568-172.096c88-101.184 162.496-186.816 203.328-234.368C957.504 446.144 965.248 384.512 929.792 341.76zM888 443.456c-40.448 47.104-114.88 132.672-202.816 233.728L535.616 849.28c-13.824 15.872-19.264 15.872-23.232 15.872-3.776 0-9.408 0-23.232-15.872l-144.64-166.4C252.608 577.152 174.656 487.488 137.92 444.8 121.728 419.584 121.28 395.904 136.96 377.728c18.56-22.08 57.472-67.008 95.808-111.296C263.104 231.36 293.12 196.736 312.448 174.08c12.736-14.912 19.328-14.912 23.744-14.912 0 0 147.52-0.32 251.904-0.32 79.104 0 96.32 0.192 99.456 0.32 8.576 0.32 11.84 2.496 24.896 16.576 32.192 34.688 103.232 117.76 145.728 167.424 14.4 16.832 25.28 29.568 29.568 34.432C903.936 397.056 900.736 428.096 888 443.456zM681.216 395.776l-169.408 216.96L342.656 395.2C340.928 392.448 340.416 392.448 337.92 392.448l-82.56 0 0 38.144 1.984 0c15.616 0 21.376 4.032 27.776 12.608C285.824 444.096 286.528 445.056 288 446.848c37.184 50.56 183.04 227.776 224.192 283.008 41.152-55.232 186.88-232.576 224.576-283.712 0.896-1.088 1.6-2.048 2.24-2.88 6.464-8.576 12.224-12.672 27.776-12.672l1.856 0L768.64 392.384l-82.24 0C684.096 392.384 683.392 392.384 681.216 395.776z" /></svg>