<?xml version="1.0" standalone="no"?><!DOCTYPE svg PUBLIC "-//W3C//DTD SVG 1.1//EN" "http://www.w3.org/Graphics/SVG/1.1/DTD/svg11.dtd"><svg class="icon" width="200px" height="200.00px" viewBox="0 0 1024 1024" version="1.1" xmlns="http://www.w3.org/2000/svg"><path fill="#333333" d="M808.96 610.986667c0-17.066667-13.653333-30.72-30.72-30.72H235.52 225.28c-3.413333 0-3.413333 0-6.826667 3.413333-3.413333 0-3.413333 3.413333-3.413333 3.413333-3.413333 0-3.413333 3.413333-3.413333 3.413334s0 3.413333-3.413334 3.413333c0 3.413333-3.413333 3.413333-3.413333 6.826667V621.226667c0 3.413333 0 3.413333 3.413333 6.826666l3.413334 3.413334c0 3.413333 3.413333 3.413333 3.413333 6.826666l139.946667 109.226667c6.826667 3.413333 13.653333 6.826667 20.48 6.826667 10.24 0 20.48-3.413333 23.893333-13.653334 10.24-13.653333 6.826667-34.133333-6.826667-44.373333l-68.266666-51.2h450.56c20.48 0 34.133333-13.653333 34.133333-34.133333zM805.546667 423.253333l-3.413334-3.413333c-3.413333-3.413333-6.826667-6.826667-10.24-6.826667l-126.293333-98.986666c-13.653333-10.24-34.133333-6.826667-44.373333 6.826666-10.24 13.653333-6.826667 34.133333 6.826666 44.373334l58.026667 44.373333H235.52c-17.066667 0-30.72 13.653333-30.72 30.72s13.653333 30.72 30.72 30.72h529.066667c6.826667 3.413333 13.653333 6.826667 20.48 6.826667 10.24 0 20.48-3.413333 23.893333-13.653334 13.653333-10.24 10.24-30.72-3.413333-40.96zM993.28 382.293333c17.066667 0 30.72-13.653333 30.72-30.72V286.72C1024 129.706667 894.293333 0 737.28 0H286.72C129.706667 0 0 129.706667 0 286.72v447.146667C0 894.293333 129.706667 1024 286.72 1024h447.146667c160.426667 0 286.72-129.706667 286.72-286.72v-160.426667c0-17.066667-13.653333-30.72-30.72-30.72s-30.72 13.653333-30.72 30.72v160.426667c0 122.88-98.986667 225.28-225.28 225.28H286.72c-122.88 0-225.28-98.986667-225.28-225.28V286.72c0-122.88 98.986667-225.28 225.28-225.28h447.146667c122.88 0 225.28 98.986667 225.28 225.28v64.853333c0 17.066667 13.653333 30.72 34.133333 30.72z" /></svg>